<svg xmlns="http://www.w3.org/2000/svg" width="160" height="160" viewBox="0 0 160 160">
  <g id="Image-Placeholder" transform="translate(0.475 -0.167)">
    <g id="Mask" transform="translate(-0.475 0.167)">
      <circle id="Ellipse_598" data-name="Ellipse 598" cx="80" cy="80" r="80" fill="#f2f5f8"/>
    </g>
    <g id="Group-24" transform="translate(35.581 43.796)">
      <g id="Group_1012" data-name="Group 1012" transform="translate(-3.715 0.653)">
        <path id="Path" d="M147.94,69.462a6.64,6.64,0,0,0-7.4,1.774l-26.8,31.281a2.243,2.243,0,0,1-2.7.537L97.868,88.314a6.626,6.626,0,0,0-5.057-1.33,6.509,6.509,0,0,0-4.353,2.589l-15.037,17.84a6.7,6.7,0,0,0-.735,7.081,6.635,6.635,0,0,0,6.006,3.771h66.824a6.709,6.709,0,0,0,6.683-6.718V75.724a6.672,6.672,0,0,0-4.259-6.262" transform="translate(-63.34 -54.971)" fill="#cbd6e2" fill-rule="evenodd"/>
        <path id="Path_2364" data-name="Path 2364" d="M79.447,74.894A7.447,7.447,0,1,0,72,67.447a7.445,7.445,0,0,0,7.447,7.447" transform="translate(-63.34 -56.282)" fill="#cbd6e2" fill-rule="evenodd"/>
      </g>
    </g>
  </g>
</svg>
