<svg xmlns="http://www.w3.org/2000/svg" viewBox="0 0 28 28">
  <path d="M28,214a14,14,0,1,1-14-14A14.005,14.005,0,0,1,28,214Z" transform="translate(0 -200)" fill="#2d2d37"/>
  <g transform="translate(6.533 6.533)">
    <g>
      <path d="M58.164,254.3a3.864,3.864,0,1,0,3.864,3.864A3.872,3.872,0,0,0,58.164,254.3Zm0,6.365a2.5,2.5,0,1,1,2.5-2.5A2.5,2.5,0,0,1,58.164,260.665Z" transform="translate(-50.697 -250.697)" fill="#fff"/>
      <path d="M92.4,248.9a.9.9,0,1,0,.9.9A.9.9,0,0,0,92.4,248.9Z" transform="translate(-80.953 -246.305)" fill="#fff"/>
      <path d="M45.677,235H39.256A4.254,4.254,0,0,0,35,239.256v6.4a4.254,4.254,0,0,0,4.256,4.256h6.4a4.266,4.266,0,0,0,4.256-4.256v-6.4A4.238,4.238,0,0,0,45.677,235Zm2.893,10.677a2.9,2.9,0,0,1-2.893,2.893H39.256a2.9,2.9,0,0,1-2.893-2.893v-6.4a2.9,2.9,0,0,1,2.893-2.893h6.4a2.9,2.9,0,0,1,2.893,2.893v6.4Z" transform="translate(-35 -235)" fill="#fff"/>
    </g>
  </g>
</svg>
