<svg xmlns="http://www.w3.org/2000/svg" width="350" height="300" viewBox="0 0 350 300">
  <g id="Group_1006" data-name="Group 1006" transform="translate(21552.27 -5708)">
    <rect id="Rectangle_3078" data-name="Rectangle 3078" width="350" height="300" transform="translate(-21552.27 5708)" fill="#f2f5f8"/>
    <g id="Group_1003" data-name="Group 1003" transform="translate(-21473.98 5782.289)">
      <path id="Path" d="M499.654,442.807a15.9,15.9,0,0,0-17.761,4.255l-64.358,75.455c-1.9,2.1-5.016,2.356-6.494,1.3L379.4,488.267a15.844,15.844,0,0,0-12.146-3.191,15.619,15.619,0,0,0-10.451,6.238l-36.12,43.019a16.216,16.216,0,0,0-1.764,17.072,15.933,15.933,0,0,0,14.424,9.094h160.5a16.146,16.146,0,0,0,16.055-16.2V457.911a16.092,16.092,0,0,0-10.234-15.1" transform="translate(-317.052 -417.001)" fill="#cbd6e2"/>
      <path id="Path_2311" data-name="Path 2311" d="M335.19,430.859a17.96,17.96,0,1,0-17.96-17.96,17.96,17.96,0,0,0,17.96,17.96" transform="translate(-317.23 -394.94)" fill="#cbd6e2"/>
    </g>
  </g>
</svg>
