<svg xmlns="http://www.w3.org/2000/svg" viewBox="0 0 1000 1000"><defs><style>.cls-1{fill:#cbd6e2;}.cls-2{fill:#f2f5f8;}.cls-3{fill:none;}</style></defs><title>Layout1</title><g id="Layer_2" data-name="Layer 2"><g id="Layer_1-2" data-name="Layer 1"><circle class="cls-1" cx="584.58" cy="472.82" r="9.06"/><path class="cls-1" d="M610.47,466.35H882.25a6.47,6.47,0,0,1,6.47,6.47h0a6.47,6.47,0,0,1-6.47,6.47H610.47a6.46,6.46,0,0,1-6.47-6.47h0A6.47,6.47,0,0,1,610.47,466.35Z"/><circle class="cls-1" cx="584.58" cy="512.94" r="9.06"/><path class="cls-1" d="M610.47,505.18H882.25a6.47,6.47,0,0,1,6.47,6.47h0a6.47,6.47,0,0,1-6.47,6.47H610.47a6.47,6.47,0,0,1-6.47-6.47h0A6.46,6.46,0,0,1,610.47,505.18Z"/><circle class="cls-1" cx="584.58" cy="550.47" r="9.06"/><path class="cls-1" d="M610.47,544H882.25a6.47,6.47,0,0,1,6.47,6.47h0a6.47,6.47,0,0,1-6.47,6.47H610.47a6.46,6.46,0,0,1-6.47-6.47h0A6.47,6.47,0,0,1,610.47,544Z"/><circle class="cls-1" cx="584.58" cy="589.3" r="9.06"/><path class="cls-1" d="M610.47,582.83H882.25a6.47,6.47,0,0,1,6.47,6.47h0a6.47,6.47,0,0,1-6.47,6.47H610.47A6.47,6.47,0,0,1,604,589.3h0A6.46,6.46,0,0,1,610.47,582.83Z"/><rect class="cls-2" x="99.63" y="290.34" width="447.79" height="388.26"/><rect class="cls-2" x="29.75" y="292.93" width="51.77" height="56.94"/><rect class="cls-2" x="29.75" y="370.58" width="51.77" height="56.94"/><rect class="cls-2" x="29.75" y="448.23" width="51.77" height="56.94"/><rect class="cls-2" x="29.75" y="525.88" width="51.77" height="56.94"/><rect class="cls-1" x="582" y="290.34" width="388.26" height="32.35"/><rect class="cls-1" x="582" y="342.11" width="388.26" height="7.77"/><rect class="cls-1" x="582" y="355.05" width="388.26" height="7.77"/><rect class="cls-1" x="582" y="367.99" width="388.26" height="7.77"/><rect class="cls-1" x="582" y="395.17" width="90.59" height="38.83"/><rect class="cls-1" x="698.47" y="395.17" width="90.59" height="38.83"/><path id="Path" class="cls-1" d="M433.85,425.94a20.41,20.41,0,0,0-22.76,5.46L328.6,527.69c-2.44,2.67-6.43,3-8.32,1.65L279.72,484a20.4,20.4,0,0,0-15.56-4.1,20,20,0,0,0-13.4,8l-46.29,54.92a20.65,20.65,0,0,0-2.27,21.8,20.44,20.44,0,0,0,18.49,11.61h205.7A20.65,20.65,0,0,0,447,555.48V445.21a20.52,20.52,0,0,0-13.11-19.27"/><path class="cls-1" d="M223,438.62a22.93,22.93,0,1,0-22.93-22.92A22.92,22.92,0,0,0,223,438.62"/><path id="Path-2" data-name="Path" class="cls-1" d="M72.06,312.69a3,3,0,0,0-3.39.81L56.39,327.84a1,1,0,0,1-1.24.24l-6-6.75a3,3,0,0,0-2.32-.61,3,3,0,0,0-2,1.18l-6.89,8.18a3.07,3.07,0,0,0,2.41,5H71A3.08,3.08,0,0,0,74,332V315.56a3.06,3.06,0,0,0-2-2.87"/><path class="cls-1" d="M40.67,314.58a3.42,3.42,0,1,0-3.41-3.42,3.42,3.42,0,0,0,3.41,3.42"/><path id="Path-3" data-name="Path" class="cls-1" d="M72.06,390.34a3.06,3.06,0,0,0-3.39.81L56.39,405.49a1,1,0,0,1-1.24.24l-6-6.75a3,3,0,0,0-2.32-.61,3,3,0,0,0-2,1.19l-6.89,8.17a3.07,3.07,0,0,0,2.41,5H71A3.07,3.07,0,0,0,74,409.63V393.21a3.06,3.06,0,0,0-2-2.87"/><path class="cls-1" d="M40.67,392.23a3.42,3.42,0,1,0-3.41-3.41,3.41,3.41,0,0,0,3.41,3.41"/><path id="Path-4" data-name="Path" class="cls-1" d="M72.06,468a3.06,3.06,0,0,0-3.39.81L56.39,483.14a1,1,0,0,1-1.24.25l-6-6.76a3,3,0,0,0-2.32-.61,3,3,0,0,0-2,1.19l-6.89,8.17a3.08,3.08,0,0,0,2.41,5H71A3.08,3.08,0,0,0,74,487.28V470.86a3.06,3.06,0,0,0-2-2.87"/><path class="cls-1" d="M40.67,469.88a3.42,3.42,0,1,0-3.41-3.41,3.41,3.41,0,0,0,3.41,3.41"/><path id="Path-5" data-name="Path" class="cls-1" d="M72.06,545.64a3.06,3.06,0,0,0-3.39.81L56.39,560.79a1,1,0,0,1-1.24.25l-6-6.76a3.05,3.05,0,0,0-2.32-.61,3,3,0,0,0-2,1.19L37.91,563a3.08,3.08,0,0,0,2.41,5H71A3.08,3.08,0,0,0,74,564.93V548.51a3.07,3.07,0,0,0-2-2.87"/><path class="cls-1" d="M40.67,547.53a3.42,3.42,0,1,0-3.41-3.41,3.41,3.41,0,0,0,3.41,3.41"/><path class="cls-2" d="M611.34,410.9a2.83,2.83,0,0,1,.51,1.7,2.47,2.47,0,0,1-.52,1.65,2.86,2.86,0,0,1-.85.64,2.44,2.44,0,0,1,1.29,1,3,3,0,0,1,.44,1.64,3.27,3.27,0,0,1-.5,1.78,3.18,3.18,0,0,1-.79.88,3.12,3.12,0,0,1-1.27.56,7.78,7.78,0,0,1-1.58.15h-5V409.71h5.4A3.42,3.42,0,0,1,611.34,410.9Zm-6.07.75v2.46H608a2.33,2.33,0,0,0,1.19-.27,1.08,1.08,0,0,0,.45-1,1,1,0,0,0-.6-1,4.46,4.46,0,0,0-1.32-.17Zm0,4.31v3H608a2.65,2.65,0,0,0,1.13-.19,1.42,1.42,0,0,0,.74-1.4,1.21,1.21,0,0,0-.71-1.2A3,3,0,0,0,608,416Z"/><path class="cls-2" d="M616.35,412.62v5a2.59,2.59,0,0,0,.17,1.06,1.14,1.14,0,0,0,1.15.63,1.51,1.51,0,0,0,1.51-.89,3.29,3.29,0,0,0,.21-1.28v-4.5h2.19v8.26h-2.1v-1.16l-.15.22a1.58,1.58,0,0,1-.29.34,2.9,2.9,0,0,1-1,.62,3.3,3.3,0,0,1-1.1.17,2.47,2.47,0,0,1-2.47-1.32,5,5,0,0,1-.35-2.15v-5Z"/><path class="cls-2" d="M623,414.23v-1.54h1.15v-2.3h2.14v2.3h1.34v1.54h-1.34v4.37a1,1,0,0,0,.13.64,1.46,1.46,0,0,0,.79.12h.42V421l-1,0a2.76,2.76,0,0,1-2.09-.53,1.56,1.56,0,0,1-.37-1.15v-5.09Z"/><path class="cls-2" d="M628.32,414.23v-1.54h1.15v-2.3h2.14v2.3H633v1.54h-1.34v4.37a1,1,0,0,0,.13.64,1.42,1.42,0,0,0,.78.12H633V421l-1,0a2.78,2.78,0,0,1-2.1-.53,1.6,1.6,0,0,1-.36-1.15v-5.09Z"/><path class="cls-2" d="M641.39,419.87a4.54,4.54,0,0,1-6.36,0,4.76,4.76,0,0,1-1-3.11,4.83,4.83,0,0,1,1-3.1,4.51,4.51,0,0,1,6.36,0,4.87,4.87,0,0,1,1,3.1A4.8,4.8,0,0,1,641.39,419.87Zm-1.73-1.19a3.92,3.92,0,0,0,0-3.83,1.93,1.93,0,0,0-2.92,0,3.85,3.85,0,0,0,0,3.83,1.93,1.93,0,0,0,2.92,0Z"/><path class="cls-2" d="M650.8,413.09a2.75,2.75,0,0,1,.81,2.23v5.56H649.4v-5a2.2,2.2,0,0,0-.18-1,1.2,1.2,0,0,0-1.2-.64,1.49,1.49,0,0,0-1.5.93,3.25,3.25,0,0,0-.21,1.26v4.47h-2.16v-8.25h2.09v1.21a3.83,3.83,0,0,1,.79-.92,2.73,2.73,0,0,1,1.68-.5A3.21,3.21,0,0,1,650.8,413.09Z"/><path class="cls-2" d="M727.81,410.9a2.84,2.84,0,0,1,.52,1.7,2.53,2.53,0,0,1-.52,1.65,2.86,2.86,0,0,1-.85.64,2.44,2.44,0,0,1,1.29,1,3,3,0,0,1,.43,1.64,3.19,3.19,0,0,1-.5,1.78,3.06,3.06,0,0,1-2,1.44,7.78,7.78,0,0,1-1.58.15h-5V409.71h5.41A3.4,3.4,0,0,1,727.81,410.9Zm-6.07.75v2.46h2.72a2.27,2.27,0,0,0,1.18-.27,1.08,1.08,0,0,0,.46-1,1,1,0,0,0-.6-1,4.46,4.46,0,0,0-1.32-.17Zm0,4.31v3h2.72a2.68,2.68,0,0,0,1.13-.19,1.42,1.42,0,0,0,.73-1.4,1.2,1.2,0,0,0-.71-1.2,2.92,2.92,0,0,0-1.11-.19Z"/><path class="cls-2" d="M732.83,412.62v5a2.61,2.61,0,0,0,.16,1.06,1.15,1.15,0,0,0,1.16.63,1.53,1.53,0,0,0,1.51-.89,3.29,3.29,0,0,0,.21-1.28v-4.5h2.19v8.26H736v-1.16l-.15.22a1.58,1.58,0,0,1-.29.34,3,3,0,0,1-1,.62,3.32,3.32,0,0,1-1.11.17,2.46,2.46,0,0,1-2.46-1.32,5,5,0,0,1-.36-2.15v-5Z"/><path class="cls-2" d="M739.47,414.23v-1.54h1.15v-2.3h2.14v2.3h1.34v1.54h-1.34v4.37a1,1,0,0,0,.13.64,1.42,1.42,0,0,0,.78.12h.43V421l-1,0a2.78,2.78,0,0,1-2.1-.53,1.6,1.6,0,0,1-.36-1.15v-5.09Z"/><path class="cls-2" d="M744.79,414.23v-1.54h1.15v-2.3h2.14v2.3h1.35v1.54h-1.35v4.37a1.06,1.06,0,0,0,.13.64,1.49,1.49,0,0,0,.79.12h.43V421l-1,0a2.76,2.76,0,0,1-2.09-.53,1.6,1.6,0,0,1-.37-1.15v-5.09Z"/><path class="cls-2" d="M757.86,419.87a4.53,4.53,0,0,1-6.35,0,4.76,4.76,0,0,1-1-3.11,4.83,4.83,0,0,1,1-3.1,4.5,4.5,0,0,1,6.35,0,4.83,4.83,0,0,1,1,3.1A4.76,4.76,0,0,1,757.86,419.87Zm-1.73-1.19a3.85,3.85,0,0,0,0-3.83,1.91,1.91,0,0,0-2.91,0,3.85,3.85,0,0,0,0,3.83,1.91,1.91,0,0,0,2.91,0Z"/><path class="cls-2" d="M767.28,413.09a2.75,2.75,0,0,1,.81,2.23v5.56h-2.22v-5a2.22,2.22,0,0,0-.17-1,1.2,1.2,0,0,0-1.2-.64,1.49,1.49,0,0,0-1.5.93,3.25,3.25,0,0,0-.21,1.26v4.47h-2.16v-8.25h2.09v1.21a4.06,4.06,0,0,1,.78-.92,2.78,2.78,0,0,1,1.69-.5A3.23,3.23,0,0,1,767.28,413.09Z"/><rect class="cls-3" width="1000" height="1000"/></g></g></svg>