<svg xmlns="http://www.w3.org/2000/svg" width="340" height="300" viewBox="0 0 340 300">
  <g id="Group_1007" data-name="Group 1007" transform="translate(21552.27 -5708)">
    <rect id="Rectangle_3078" data-name="Rectangle 3078" width="340" height="300" transform="translate(-21552.27 5708)" fill="#f2f5f8"/>
    <g id="Group_1003" data-name="Group 1003" transform="translate(-21475.111 5778.317)">
      <path id="Path" d="M492.358,442.762a15.259,15.259,0,0,0-17.05,4.084l-61.783,72.437c-1.826,2.012-4.815,2.262-6.234,1.246L376.912,486.4a15.21,15.21,0,0,0-11.66-3.063,15,15,0,0,0-10.033,5.989l-34.675,41.3a15.567,15.567,0,0,0-1.693,16.389,15.3,15.3,0,0,0,13.847,8.73H486.775A15.5,15.5,0,0,0,502.188,540.2V457.262a15.448,15.448,0,0,0-9.824-14.5" transform="translate(-317.061 -417.989)" fill="#cbd6e2"/>
      <path id="Path_2311" data-name="Path 2311" d="M334.471,429.423a17.241,17.241,0,1,0-17.241-17.241,17.241,17.241,0,0,0,17.241,17.241" transform="translate(-317.23 -394.94)" fill="#cbd6e2"/>
    </g>
  </g>
</svg>
