<svg xmlns="http://www.w3.org/2000/svg" viewBox="0 0 1000 1000"><defs><style>.cls-1{fill:#f2f5f8;}.cls-2{fill:#cbd6e2;}.cls-3{fill:none;}</style></defs><title>Layout2</title><g id="Layer_2" data-name="Layer 2"><g id="Layer_1-2" data-name="Layer 1"><rect class="cls-1" x="179.05" y="23.91" width="641.13" height="363.62"/><rect class="cls-2" x="401.01" y="499.62" width="419.94" height="8.4"/><rect class="cls-2" x="401.01" y="513.62" width="419.94" height="8.4"/><rect class="cls-2" x="401.01" y="527.62" width="419.94" height="8.4"/><rect class="cls-2" x="401.01" y="939.69" width="419.94" height="8.4"/><rect class="cls-2" x="401.01" y="953.69" width="419.94" height="8.4"/><rect class="cls-2" x="401.01" y="967.69" width="419.94" height="8.4"/><path id="Path" class="cls-2" d="M602.94,150.91A19.15,19.15,0,0,0,581.61,156L504.36,246.2c-2.28,2.51-6,2.82-7.79,1.55l-38-42.49A19.08,19.08,0,0,0,444,201.42a18.78,18.78,0,0,0-12.55,7.47L388.1,260.32a19.38,19.38,0,0,0,15.2,31.28H596a19.35,19.35,0,0,0,19.27-19.37V169a19.24,19.24,0,0,0-12.28-18.05"/><path class="cls-2" d="M405.48,162.79A21.47,21.47,0,1,0,384,141.32a21.47,21.47,0,0,0,21.47,21.47"/><rect class="cls-2" x="240.12" y="418.03" width="23.1" height="22.57"/><rect class="cls-2" x="270.55" y="418.03" width="23.1" height="22.57"/><rect class="cls-2" x="300.97" y="418.03" width="23.1" height="22.57"/><rect class="cls-2" x="331.4" y="418.03" width="23.1" height="22.57"/><path class="cls-2" d="M183,431.39a2.42,2.42,0,0,0,.46,1.23,2.67,2.67,0,0,0,2.15.75,4.64,4.64,0,0,0,1.48-.2,1.41,1.41,0,0,0,1.08-1.4,1,1,0,0,0-.53-.93,5.71,5.71,0,0,0-1.67-.56L184.7,430a7.84,7.84,0,0,1-2.65-.93,2.93,2.93,0,0,1-1.23-2.61,3.47,3.47,0,0,1,1.2-2.7,5.09,5.09,0,0,1,3.51-1.08,5.36,5.36,0,0,1,3.3,1,3.57,3.57,0,0,1,1.43,2.94h-2.42a1.73,1.73,0,0,0-1-1.55,3.33,3.33,0,0,0-1.5-.31,2.89,2.89,0,0,0-1.6.4,1.24,1.24,0,0,0-.6,1.1,1,1,0,0,0,.59,1,7.2,7.2,0,0,0,1.61.51l2.12.5a5.4,5.4,0,0,1,2.09.87,3,3,0,0,1,1.08,2.47,3.47,3.47,0,0,1-1.28,2.75,5.42,5.42,0,0,1-3.62,1.1,5.94,5.94,0,0,1-3.76-1.08,3.57,3.57,0,0,1-1.36-3Z"/><path class="cls-2" d="M198.83,426.23a2.62,2.62,0,0,1,1.1.88,2.2,2.2,0,0,1,.45,1,12,12,0,0,1,.08,1.73v5.26h-2.38v-5.45a2.3,2.3,0,0,0-.25-1.16,1.21,1.21,0,0,0-1.2-.63,1.66,1.66,0,0,0-1.4.62,2.87,2.87,0,0,0-.48,1.77v4.85h-2.33V423.07h2.33v4.26a2.8,2.8,0,0,1,1.18-1.08,3.22,3.22,0,0,1,1.4-.31A3.65,3.65,0,0,1,198.83,426.23Z"/><path class="cls-2" d="M206.37,429.68a3.39,3.39,0,0,0,.93-.21.7.7,0,0,0,.51-.66.78.78,0,0,0-.39-.76,2.42,2.42,0,0,0-1.13-.21,1.5,1.5,0,0,0-1.19.41,1.61,1.61,0,0,0-.33.82h-2.26a3.46,3.46,0,0,1,.66-1.93,3.85,3.85,0,0,1,3.19-1.18,5.65,5.65,0,0,1,2.62.59,2.21,2.21,0,0,1,1.15,2.19v4.11c0,.28,0,.62,0,1a1.2,1.2,0,0,0,.14.62.79.79,0,0,0,.34.27v.35h-2.54a2.88,2.88,0,0,1-.15-.51c0-.16-.05-.34-.07-.54a4.44,4.44,0,0,1-1.12.89,3.37,3.37,0,0,1-1.71.44,3,3,0,0,1-2-.7,2.45,2.45,0,0,1-.8-2,2.55,2.55,0,0,1,1.28-2.39,5.62,5.62,0,0,1,2.07-.57Zm1.43,1.09a3.19,3.19,0,0,1-.45.23,5.13,5.13,0,0,1-.63.16l-.53.09a3.81,3.81,0,0,0-1.08.32,1.08,1.08,0,0,0-.55,1,1,1,0,0,0,.34.86,1.26,1.26,0,0,0,.82.27,2.48,2.48,0,0,0,1.41-.44,1.9,1.9,0,0,0,.67-1.62Z"/><path class="cls-2" d="M217.31,426h.2v2.4l-.4,0h-.28a1.93,1.93,0,0,0-1.89.92,3.61,3.61,0,0,0-.27,1.59v4.28h-2.36v-8.94h2.24v1.56a4.9,4.9,0,0,1,.94-1.23,2.59,2.59,0,0,1,1.7-.55Z"/><path class="cls-2" d="M224.87,426.36a3.62,3.62,0,0,1,1.54,1.32,4.38,4.38,0,0,1,.72,1.85,10.87,10.87,0,0,1,.07,1.77h-6.51a2.15,2.15,0,0,0,.94,1.89,2.38,2.38,0,0,0,1.29.34,2,2,0,0,0,1.29-.41,2,2,0,0,0,.49-.62h2.38a2.94,2.94,0,0,1-.86,1.62,4.37,4.37,0,0,1-3.37,1.3,4.89,4.89,0,0,1-3.15-1.1,4.33,4.33,0,0,1-1.36-3.58,4.83,4.83,0,0,1,1.23-3.56,4.3,4.3,0,0,1,3.2-1.24A5,5,0,0,1,224.87,426.36Zm-3.5,2a2.39,2.39,0,0,0-.62,1.38h4a2,2,0,0,0-.63-1.41,2,2,0,0,0-1.38-.48A1.87,1.87,0,0,0,221.37,428.38Z"/><rect class="cls-2" x="400.88" y="466.94" width="109.31" height="18.41"/><g id="Layer_2-2" data-name="Layer 2"><g id="Layer_1-2-2" data-name="Layer 1-2"><path class="cls-1" d="M413.22,469.61a6.6,6.6,0,1,0,6.6,6.6A6.6,6.6,0,0,0,413.22,469.61Zm2.85,7.86h-2.86a.46.46,0,0,1-.45-.46v-4.66a.46.46,0,0,1,.91,0v4.2h2.4a.46.46,0,0,1,0,.92Z"/></g></g><path class="cls-1" d="M428.32,471.51h3.61a3.35,3.35,0,0,1,2.85,1.33,4.85,4.85,0,0,1,.91,3.05,6.16,6.16,0,0,1-.54,2.61,3.28,3.28,0,0,1-3.23,2.05h-3.6Zm3.37,8a3.46,3.46,0,0,0,1-.12,2.18,2.18,0,0,0,1.14-.93,3.66,3.66,0,0,0,.51-1.4,5.52,5.52,0,0,0,.09-.95,4.46,4.46,0,0,0-.65-2.61,2.39,2.39,0,0,0-2.1-.92h-2.12v6.93Z"/><path class="cls-1" d="M440.87,476.56a.58.58,0,0,0,.51-.32,1,1,0,0,0,.08-.42.91.91,0,0,0-.41-.83,2.16,2.16,0,0,0-1.15-.25,1.45,1.45,0,0,0-1.23.47,1.58,1.58,0,0,0-.26.77h-1a1.91,1.91,0,0,1,.79-1.7,3.2,3.2,0,0,1,1.76-.48,3.51,3.51,0,0,1,1.88.45,1.49,1.49,0,0,1,.72,1.37v3.8a.58.58,0,0,0,.07.28.35.35,0,0,0,.3.1h.17l.19,0v.82a2.48,2.48,0,0,1-.39.09,1.89,1.89,0,0,1-.37,0,.91.91,0,0,1-.83-.4,1.69,1.69,0,0,1-.19-.61,3,3,0,0,1-1,.77,3.1,3.1,0,0,1-1.4.32,2.09,2.09,0,0,1-1.5-.55,1.89,1.89,0,0,1-.58-1.4,1.77,1.77,0,0,1,.57-1.41,2.77,2.77,0,0,1,1.51-.63Zm-2.33,3a1.26,1.26,0,0,0,.83.28,2.51,2.51,0,0,0,1.13-.27,1.51,1.51,0,0,0,.92-1.47v-.89a1.69,1.69,0,0,1-.52.22,3.56,3.56,0,0,1-.62.12l-.67.09a2.44,2.44,0,0,0-.91.25,1,1,0,0,0-.51.92A.9.9,0,0,0,438.54,479.55Z"/><path class="cls-1" d="M444.69,472.12h1.12V474h1.06v.91h-1.06v4.3a.46.46,0,0,0,.24.46,1.09,1.09,0,0,0,.43.06h.17l.22,0v.88a2.57,2.57,0,0,1-.4.08,3.24,3.24,0,0,1-.45,0,1.22,1.22,0,0,1-1-.39,1.81,1.81,0,0,1-.28-1v-4.36h-.89V474h.89Z"/><path class="cls-1" d="M452.17,474.14a2.57,2.57,0,0,1,1,.86,3,3,0,0,1,.44,1.16,8.29,8.29,0,0,1,.09,1.45h-4.79a2.85,2.85,0,0,0,.47,1.61,1.56,1.56,0,0,0,1.36.61,1.77,1.77,0,0,0,1.38-.57,2,2,0,0,0,.4-.78h1.09a2.24,2.24,0,0,1-.28.81,3.1,3.1,0,0,1-.55.73,2.54,2.54,0,0,1-1.24.67,4,4,0,0,1-.89.09,2.75,2.75,0,0,1-2.08-.89,3.53,3.53,0,0,1-.85-2.51,3.78,3.78,0,0,1,.86-2.57,2.8,2.8,0,0,1,2.24-1A3,3,0,0,1,452.17,474.14Zm.4,2.59a2.86,2.86,0,0,0-.32-1.15,1.59,1.59,0,0,0-1.5-.8,1.64,1.64,0,0,0-1.27.55,2.11,2.11,0,0,0-.54,1.4Z"/><rect class="cls-2" x="400.88" y="418.03" width="419.94" height="35"/><path class="cls-1" d="M419,430.73v1.78h-3v8.29h-2.12v-8.29h-3v-1.78Z"/><path class="cls-1" d="M421.93,432.47h-2v-1.8h2Zm-2,.88h2v7.45h-2Z"/><path class="cls-1" d="M423.19,434.81v-1.39h1v-2.08h1.93v2.08h1.21v1.39h-1.21v3.94a1,1,0,0,0,.11.57,1.36,1.36,0,0,0,.71.11h.19l.2,0v1.46l-.93,0a2.42,2.42,0,0,1-1.88-.47,1.42,1.42,0,0,1-.33-1v-4.59Z"/><path class="cls-1" d="M430.75,440.8H428.8V430.73h1.95Z"/><path class="cls-1" d="M437.64,433.5a3.06,3.06,0,0,1,1.29,1.11,3.67,3.67,0,0,1,.59,1.54,8.4,8.4,0,0,1,.07,1.47h-5.43a1.8,1.8,0,0,0,.78,1.58,2.05,2.05,0,0,0,1.07.28,1.71,1.71,0,0,0,1.09-.34,1.83,1.83,0,0,0,.4-.52h2a2.4,2.4,0,0,1-.72,1.35,3.62,3.62,0,0,1-2.8,1.09,4,4,0,0,1-2.62-.92,3.61,3.61,0,0,1-1.14-3,4,4,0,0,1,1-3,3.58,3.58,0,0,1,2.66-1A4.27,4.27,0,0,1,437.64,433.5Zm-2.91,1.69a2,2,0,0,0-.52,1.15h3.35a1.61,1.61,0,0,0-.51-1.18,1.78,1.78,0,0,0-1.16-.4A1.51,1.51,0,0,0,434.73,435.19Z"/><rect class="cls-1" x="401.02" y="554.67" width="419.38" height="363.62"/><path id="Path-2" data-name="Path" class="cls-2" d="M714,681.66a19.14,19.14,0,0,0-21.32,5.11L615.46,777c-2.29,2.51-6,2.82-7.8,1.55l-38-42.49a19.1,19.1,0,0,0-14.58-3.84,18.8,18.8,0,0,0-12.55,7.47L499.2,791.07a19.39,19.39,0,0,0,15.2,31.29H707.05A19.34,19.34,0,0,0,726.31,803V699.71A19.22,19.22,0,0,0,714,681.66"/><path class="cls-2" d="M516.57,693.54a21.47,21.47,0,1,0-21.47-21.47,21.46,21.46,0,0,0,21.47,21.47"/><rect class="cls-3" width="1000" height="1000"/></g></g></svg>