<svg id="Group_1008" data-name="Group 1008" xmlns="http://www.w3.org/2000/svg" width="40" height="40" viewBox="0 0 40 40">
  <rect id="Rectangle_3078" data-name="Rectangle 3078" width="40" height="40" fill="#f2f5f8"/>
  <g id="Group_1003" data-name="Group 1003" transform="translate(8.018 9.764)">
    <path id="Path" d="M340.015,441.829a1.982,1.982,0,0,0-2.215.531l-8.026,9.41a.67.67,0,0,1-.81.162l-3.946-4.433a1.976,1.976,0,0,0-1.515-.4,1.948,1.948,0,0,0-1.3.778l-4.5,5.365a2.022,2.022,0,0,0-.22,2.129,1.987,1.987,0,0,0,1.8,1.134H339.29a2.014,2.014,0,0,0,2-2.02V443.713a2.007,2.007,0,0,0-1.276-1.884" transform="translate(-317.242 -438.611)" fill="#cbd6e2"/>
    <path id="Path_2311" data-name="Path 2311" d="M319.47,399.42a2.24,2.24,0,1,0-2.24-2.24,2.24,2.24,0,0,0,2.24,2.24" transform="translate(-317.23 -394.94)" fill="#cbd6e2"/>
  </g>
</svg>
