<svg xmlns="http://www.w3.org/2000/svg" viewBox="0 0 1000 1000"><defs><style>.cls-1{fill:#f2f5f8;}.cls-2{fill:#cbd6e2;}.cls-3{fill:none;}</style></defs><title>Layout3</title><g id="Layer_2" data-name="Layer 2"><g id="Layer_1-2" data-name="Layer 1"><rect class="cls-1" x="169.3" y="244.07" width="659.57" height="571.89"/><rect class="cls-2" x="170.24" y="101.31" width="660.46" height="55.04"/><rect class="cls-2" x="170.24" y="32.26" width="210.12" height="39.82"/><rect class="cls-2" x="170.24" y="183.77" width="171.92" height="28.95"/><rect class="cls-2" x="374.64" y="183.77" width="171.92" height="28.95"/><rect class="cls-2" x="579.05" y="183.77" width="171.92" height="28.95"/><rect class="cls-2" x="170.24" y="845.24" width="660.46" height="13.21"/><rect class="cls-2" x="170.24" y="867.26" width="660.46" height="13.21"/><rect class="cls-2" x="170.24" y="889.27" width="660.46" height="13.21"/><rect class="cls-2" x="265.54" y="932.24" width="36.33" height="35.49"/><rect class="cls-2" x="313.39" y="932.24" width="36.33" height="35.49"/><rect class="cls-2" x="361.24" y="932.24" width="36.33" height="35.49"/><rect class="cls-2" x="409.09" y="932.24" width="36.33" height="35.49"/><path id="Path" class="cls-2" d="M661.59,443.79a30.09,30.09,0,0,0-33.53,8L506.56,593.67c-3.59,3.94-9.47,4.43-12.26,2.44l-59.74-66.84a30,30,0,0,0-22.93-6A29.51,29.51,0,0,0,391.9,535l-68.19,80.89a30.39,30.39,0,0,0-3.33,32.1,30.09,30.09,0,0,0,27.23,17.1h303a30.42,30.42,0,0,0,30.31-30.46V472.19a30.26,30.26,0,0,0-19.32-28.4"/><path class="cls-2" d="M351,462.48a33.77,33.77,0,1,0-33.77-33.77A33.76,33.76,0,0,0,351,462.48"/><path class="cls-2" d="M175.76,953.24a3.92,3.92,0,0,0,.73,2,4.18,4.18,0,0,0,3.38,1.18,7.41,7.41,0,0,0,2.33-.31,2.21,2.21,0,0,0,1.7-2.21,1.62,1.62,0,0,0-.83-1.46,9.14,9.14,0,0,0-2.64-.89l-2.06-.45a12.81,12.81,0,0,1-4.17-1.46,4.62,4.62,0,0,1-1.92-4.11,5.46,5.46,0,0,1,1.88-4.24,8,8,0,0,1,5.52-1.69,8.47,8.47,0,0,1,5.19,1.59,5.64,5.64,0,0,1,2.26,4.62h-3.82a2.71,2.71,0,0,0-1.53-2.43,5.27,5.27,0,0,0-2.37-.48,4.42,4.42,0,0,0-2.51.62,2,2,0,0,0-.94,1.73,1.65,1.65,0,0,0,.92,1.52,11.85,11.85,0,0,0,2.53.78l3.34.79a8.65,8.65,0,0,1,3.28,1.38,4.64,4.64,0,0,1,1.7,3.88,5.46,5.46,0,0,1-2,4.33A8.48,8.48,0,0,1,180,959.6a9.33,9.33,0,0,1-5.91-1.69,5.63,5.63,0,0,1-2.15-4.67Z"/><path class="cls-2" d="M200.59,945.13a4.06,4.06,0,0,1,1.74,1.38,3.73,3.73,0,0,1,.71,1.62,19.33,19.33,0,0,1,.13,2.72v8.26h-3.75v-8.56a3.71,3.71,0,0,0-.39-1.83,1.9,1.9,0,0,0-1.89-1,2.6,2.6,0,0,0-2.2,1,4.49,4.49,0,0,0-.75,2.78v7.62h-3.68v-19h3.68v6.71a4.64,4.64,0,0,1,1.84-1.71,5.27,5.27,0,0,1,2.21-.48A5.93,5.93,0,0,1,200.59,945.13Z"/><path class="cls-2" d="M212.46,950.56a5.66,5.66,0,0,0,1.47-.32,1.1,1.1,0,0,0,.79-1,1.23,1.23,0,0,0-.61-1.19,3.81,3.81,0,0,0-1.78-.33,2.34,2.34,0,0,0-1.87.65,2.72,2.72,0,0,0-.53,1.29h-3.54a5.34,5.34,0,0,1,1-3q1.47-1.86,5-1.86a9,9,0,0,1,4.12.91,3.52,3.52,0,0,1,1.8,3.46v6.45c0,.45,0,1,0,1.63a2,2,0,0,0,.22,1,1.31,1.31,0,0,0,.54.42v.54h-4a3.92,3.92,0,0,1-.23-.8,8.1,8.1,0,0,1-.11-.85,7.58,7.58,0,0,1-1.76,1.41,5.41,5.41,0,0,1-2.7.68,4.63,4.63,0,0,1-3.17-1.09,3.84,3.84,0,0,1-1.25-3.09,4,4,0,0,1,2-3.75,9,9,0,0,1,3.25-.9Zm2.25,1.72a4.76,4.76,0,0,1-.72.35,5.06,5.06,0,0,1-1,.25l-.84.16a5.55,5.55,0,0,0-1.69.5,1.69,1.69,0,0,0-.87,1.56,1.64,1.64,0,0,0,.53,1.36,2,2,0,0,0,1.29.42,3.84,3.84,0,0,0,2.22-.69,3,3,0,0,0,1.06-2.55Z"/><path class="cls-2" d="M229.66,944.72a1.67,1.67,0,0,0,.31,0v3.77c-.23,0-.44,0-.62,0h-.43a3,3,0,0,0-3,1.44,5.53,5.53,0,0,0-.43,2.5v6.72h-3.7V945.05h3.51v2.45a7.87,7.87,0,0,1,1.48-1.92,4.07,4.07,0,0,1,2.68-.86Z"/><path class="cls-2" d="M241.55,945.34a5.66,5.66,0,0,1,2.43,2.08,6.79,6.79,0,0,1,1.12,2.91,17.55,17.55,0,0,1,.12,2.79H235a3.35,3.35,0,0,0,1.48,3,3.64,3.64,0,0,0,2,.53,3.09,3.09,0,0,0,2-.64,3.19,3.19,0,0,0,.76-1H245a4.6,4.6,0,0,1-1.36,2.54,6.82,6.82,0,0,1-5.29,2.05,7.62,7.62,0,0,1-4.95-1.73q-2.15-1.73-2.15-5.63a7.62,7.62,0,0,1,1.94-5.6,6.78,6.78,0,0,1,5-2A8,8,0,0,1,241.55,945.34Zm-5.5,3.18a3.8,3.8,0,0,0-1,2.17h6.33a3.06,3.06,0,0,0-1-2.22,3.2,3.2,0,0,0-2.18-.76A2.92,2.92,0,0,0,236.05,948.52Z"/><g id="Layer_2-2" data-name="Layer 2"><g id="Layer_1-2-2" data-name="Layer 1-2"><path class="cls-1" d="M394.05,188a10.39,10.39,0,1,0,10.38,10.39A10.38,10.38,0,0,0,394.05,188Zm4.48,12.36h-4.48a.72.72,0,0,1-.72-.72v-7.33a.72.72,0,0,1,1.43,0v6.61h3.77a.72.72,0,1,1,0,1.44Z"/></g></g><path class="cls-1" d="M417.8,191h5.68a5.32,5.32,0,0,1,4.49,2.08,7.72,7.72,0,0,1,1.42,4.81,9.68,9.68,0,0,1-.84,4.09,5.18,5.18,0,0,1-5.09,3.23H417.8Zm5.3,12.56a5,5,0,0,0,1.58-.2,3.45,3.45,0,0,0,1.79-1.45,6.15,6.15,0,0,0,.81-2.21,9,9,0,0,0,.14-1.49,7,7,0,0,0-1-4.1,3.75,3.75,0,0,0-3.3-1.46h-3.34v10.91Z"/><path class="cls-1" d="M437.54,198.91a1,1,0,0,0,.81-.5,1.69,1.69,0,0,0,.11-.67,1.43,1.43,0,0,0-.63-1.3A3.37,3.37,0,0,0,436,196a2.29,2.29,0,0,0-1.93.73,2.56,2.56,0,0,0-.42,1.22h-1.62a3,3,0,0,1,1.24-2.67,5.08,5.08,0,0,1,2.77-.75,5.64,5.64,0,0,1,3,.69,2.36,2.36,0,0,1,1.13,2.17v6a.69.69,0,0,0,.12.43.53.53,0,0,0,.47.17l.26,0,.31,0v1.29c-.27.07-.48.12-.62.14a4.4,4.4,0,0,1-.58,0,1.43,1.43,0,0,1-1.31-.64,2.47,2.47,0,0,1-.3-1A4.39,4.39,0,0,1,437,205a4.84,4.84,0,0,1-2.19.51,3.28,3.28,0,0,1-2.36-.88,2.89,2.89,0,0,1-.91-2.19,2.81,2.81,0,0,1,.9-2.23,4.23,4.23,0,0,1,2.36-1Zm-3.66,4.7a2,2,0,0,0,1.3.44,3.89,3.89,0,0,0,1.78-.43,2.39,2.39,0,0,0,1.45-2.31v-1.4a2.74,2.74,0,0,1-.82.34,7.1,7.1,0,0,1-1,.2l-1.05.13a4.27,4.27,0,0,0-1.43.4,1.53,1.53,0,0,0-.81,1.44A1.43,1.43,0,0,0,433.88,203.61Z"/><path class="cls-1" d="M443.56,191.92h1.76v2.9H447v1.42h-1.65V203a.75.75,0,0,0,.36.73,1.64,1.64,0,0,0,.68.1h.27l.34,0v1.39a3.24,3.24,0,0,1-.62.12,5.18,5.18,0,0,1-.7,0,1.88,1.88,0,0,1-1.66-.62,2.79,2.79,0,0,1-.43-1.62v-6.86h-1.41v-1.42h1.41Z"/><path class="cls-1" d="M455.31,195.1a4,4,0,0,1,1.57,1.34,4.84,4.84,0,0,1,.69,1.83,12.35,12.35,0,0,1,.15,2.28h-7.53a4.47,4.47,0,0,0,.74,2.54,2.45,2.45,0,0,0,2.14,1,2.77,2.77,0,0,0,2.16-.91,3.13,3.13,0,0,0,.64-1.21h1.71a3.82,3.82,0,0,1-.45,1.27,4.84,4.84,0,0,1-.85,1.15,4.1,4.1,0,0,1-1.95,1,6.07,6.07,0,0,1-1.41.16,4.31,4.31,0,0,1-3.26-1.41,5.51,5.51,0,0,1-1.34-3.95,6,6,0,0,1,1.35-4.05,4.42,4.42,0,0,1,3.52-1.56A4.71,4.71,0,0,1,455.31,195.1Zm.62,4.07a4.61,4.61,0,0,0-.48-1.81,2.52,2.52,0,0,0-2.37-1.26,2.61,2.61,0,0,0-2,.87,3.26,3.26,0,0,0-.85,2.2Z"/><path class="cls-1" d="M187.09,191h2.18l5.16,14.21h-2.11l-1.44-4.26h-5.63l-1.53,4.26h-2Zm3.17,8.38-2.16-6.28-2.29,6.28Z"/><path class="cls-1" d="M197.88,194.82v6.88a3,3,0,0,0,.25,1.29,1.7,1.7,0,0,0,1.69.93,2.38,2.38,0,0,0,2.41-1.62,6.7,6.7,0,0,0,.35-2.39v-5.09h1.74v10.36h-1.65l0-1.53a3.82,3.82,0,0,1-.82,1,3.63,3.63,0,0,1-2.38.81,3,3,0,0,1-3-1.48,4.56,4.56,0,0,1-.43-2.12v-7Z"/><path class="cls-1" d="M207.71,191.92h1.76v2.9h1.65v1.42h-1.65V203a.74.74,0,0,0,.37.73,1.58,1.58,0,0,0,.68.1h.27l.33,0v1.39a3.09,3.09,0,0,1-.62.12,5.18,5.18,0,0,1-.7,0,1.91,1.91,0,0,1-1.66-.62,2.79,2.79,0,0,1-.43-1.62v-6.86h-1.4v-1.42h1.4Z"/><path class="cls-1" d="M213.06,190.92h1.75v5.3a4.91,4.91,0,0,1,1.11-1.1,3.73,3.73,0,0,1,2.1-.55,3.09,3.09,0,0,1,3,1.57,5.39,5.39,0,0,1,.44,2.39v6.65h-1.79v-6.53a3.75,3.75,0,0,0-.29-1.68,1.87,1.87,0,0,0-1.78-.85,2.94,2.94,0,0,0-2,.75,3.56,3.56,0,0,0-.88,2.81v5.5h-1.75Z"/><path class="cls-1" d="M231.79,195.85a5.26,5.26,0,0,1,1.37,3.93,6.74,6.74,0,0,1-1.21,4.13,4.37,4.37,0,0,1-3.75,1.64,4.26,4.26,0,0,1-3.38-1.45,5.74,5.74,0,0,1-1.24-3.88,6.19,6.19,0,0,1,1.31-4.16,4.42,4.42,0,0,1,3.54-1.54A4.65,4.65,0,0,1,231.79,195.85Zm-1.08,6.89a6.65,6.65,0,0,0,.63-2.92,5.15,5.15,0,0,0-.46-2.35,2.56,2.56,0,0,0-2.5-1.43,2.47,2.47,0,0,0-2.3,1.21,5.67,5.67,0,0,0-.72,2.94,4.91,4.91,0,0,0,.72,2.75,2.52,2.52,0,0,0,2.28,1.11A2.38,2.38,0,0,0,230.71,202.74Z"/><path class="cls-1" d="M235.55,194.82h1.65v1.79a4,4,0,0,1,1-1.28,2.63,2.63,0,0,1,1.83-.75h.16l.4,0v1.84l-.29,0H240a2.49,2.49,0,0,0-2,.85,2.9,2.9,0,0,0-.71,1.95v6h-1.74Z"/><path class="cls-1" d="M248.23,191h2.27l7.09,11.48V191h1.83v14.21h-2.16l-7.19-11.47v11.47h-1.84Z"/><path class="cls-1" d="M268.06,198.91a.94.94,0,0,0,.8-.5,1.51,1.51,0,0,0,.12-.67,1.43,1.43,0,0,0-.63-1.3,3.4,3.4,0,0,0-1.81-.4,2.31,2.31,0,0,0-1.94.73,2.46,2.46,0,0,0-.41,1.22h-1.63a3,3,0,0,1,1.25-2.67,5.05,5.05,0,0,1,2.76-.75,5.68,5.68,0,0,1,3,.69,2.38,2.38,0,0,1,1.13,2.17v6a.76.76,0,0,0,.11.43.54.54,0,0,0,.47.17l.26,0,.31,0v1.29a5.89,5.89,0,0,1-.62.14,4.3,4.3,0,0,1-.58,0,1.41,1.41,0,0,1-1.3-.64,2.47,2.47,0,0,1-.3-1,4.58,4.58,0,0,1-1.53,1.22,4.91,4.91,0,0,1-2.2.51,3.27,3.27,0,0,1-2.35-.88,2.9,2.9,0,0,1-.92-2.19,2.81,2.81,0,0,1,.9-2.23,4.26,4.26,0,0,1,2.36-1Zm-3.67,4.7a2.07,2.07,0,0,0,1.31.44,3.92,3.92,0,0,0,1.78-.43,2.39,2.39,0,0,0,1.45-2.31v-1.4a2.85,2.85,0,0,1-.82.34,7.24,7.24,0,0,1-1,.2l-1.05.13a4.2,4.2,0,0,0-1.42.4,1.53,1.53,0,0,0-.81,1.44A1.44,1.44,0,0,0,264.39,203.61Z"/><path class="cls-1" d="M273.72,194.82h1.73v1.47a5.86,5.86,0,0,1,1.12-1.12,3.38,3.38,0,0,1,1.95-.59,3.14,3.14,0,0,1,2,.61,3.34,3.34,0,0,1,.77,1,3.76,3.76,0,0,1,1.36-1.23,3.8,3.8,0,0,1,1.76-.41,2.89,2.89,0,0,1,2.85,1.51,5,5,0,0,1,.4,2.19v6.9h-1.8V198a1.69,1.69,0,0,0-.52-1.42,2.05,2.05,0,0,0-1.26-.39,2.49,2.49,0,0,0-1.77.69,3,3,0,0,0-.74,2.29v6H279.8v-6.77a3.44,3.44,0,0,0-.25-1.53,1.53,1.53,0,0,0-1.48-.73,2.57,2.57,0,0,0-1.8.77,3.73,3.73,0,0,0-.81,2.76v5.5h-1.74Z"/><path class="cls-1" d="M296.83,195.1a4,4,0,0,1,1.56,1.34,4.69,4.69,0,0,1,.7,1.83,12.35,12.35,0,0,1,.15,2.28H291.7a4.55,4.55,0,0,0,.74,2.54,2.47,2.47,0,0,0,2.14,1,2.74,2.74,0,0,0,2.16-.91,3,3,0,0,0,.64-1.21h1.72a3.82,3.82,0,0,1-.45,1.27,4.6,4.6,0,0,1-.86,1.15,4,4,0,0,1-2,1,6,6,0,0,1-1.41.16,4.32,4.32,0,0,1-3.26-1.41,5.51,5.51,0,0,1-1.33-3.95,6,6,0,0,1,1.34-4.05,4.43,4.43,0,0,1,3.52-1.56A4.78,4.78,0,0,1,296.83,195.1Zm.62,4.07a4.44,4.44,0,0,0-.49-1.81,2.5,2.5,0,0,0-2.37-1.26,2.59,2.59,0,0,0-2,.87,3.27,3.27,0,0,0-.86,2.2Z"/><path class="cls-1" d="M188.68,43.89a6.53,6.53,0,0,1,4.87-2q3.94,0,5.78,2.63a5.64,5.64,0,0,1,1.09,2.95h-3.31a4.52,4.52,0,0,0-.81-1.72,3.3,3.3,0,0,0-2.63-1,3.23,3.23,0,0,0-2.79,1.46,7.1,7.1,0,0,0-1,4.12,6.26,6.26,0,0,0,1.08,4,3.39,3.39,0,0,0,2.74,1.32,3.12,3.12,0,0,0,2.6-1.14,5,5,0,0,0,.82-1.84h3.29a7.16,7.16,0,0,1-2.18,4.22,6.34,6.34,0,0,1-4.48,1.62,6.73,6.73,0,0,1-5.32-2.19,8.83,8.83,0,0,1-1.93-6A8.76,8.76,0,0,1,188.68,43.89Z"/><path class="cls-1" d="M207.68,51a4.67,4.67,0,0,0,1.22-.27.91.91,0,0,0,.66-.87,1,1,0,0,0-.51-1,3.2,3.2,0,0,0-1.48-.27,1.93,1.93,0,0,0-1.56.53,2.32,2.32,0,0,0-.44,1.08h-2.95a4.45,4.45,0,0,1,.86-2.53c.81-1,2.21-1.55,4.19-1.55a7.44,7.44,0,0,1,3.43.77,2.93,2.93,0,0,1,1.5,2.88V55.1c0,.37,0,.83,0,1.36a1.75,1.75,0,0,0,.19.81,1,1,0,0,0,.45.36v.45h-3.33a3.33,3.33,0,0,1-.2-.67c0-.2-.06-.44-.08-.71a6.74,6.74,0,0,1-1.47,1.18,4.48,4.48,0,0,1-2.25.57,3.93,3.93,0,0,1-2.65-.91,3.27,3.27,0,0,1-1-2.58,3.34,3.34,0,0,1,1.68-3.13,7.45,7.45,0,0,1,2.71-.75Zm1.87,1.43a3.28,3.28,0,0,1-.59.3,6.54,6.54,0,0,1-.83.21l-.69.13a4.24,4.24,0,0,0-1.41.42,1.39,1.39,0,0,0-.73,1.3,1.34,1.34,0,0,0,.45,1.13,1.68,1.68,0,0,0,1.07.35,3.17,3.17,0,0,0,1.85-.58,2.47,2.47,0,0,0,.88-2.12Z"/><path class="cls-1" d="M214.3,48.65V46.47h1.63V43.2h3v3.27h1.9v2.18H219v6.19a1.4,1.4,0,0,0,.18.9,2,2,0,0,0,1.12.18h.6v2.29l-1.45.05a3.88,3.88,0,0,1-3-.75,2.21,2.21,0,0,1-.52-1.62V48.65Z"/><path class="cls-1" d="M230.69,46.6a4.8,4.8,0,0,1,2,1.73,5.77,5.77,0,0,1,.93,2.43,14.41,14.41,0,0,1,.11,2.32h-8.54a2.8,2.8,0,0,0,1.23,2.47,3,3,0,0,0,1.69.45,2.6,2.6,0,0,0,1.7-.54,2.68,2.68,0,0,0,.63-.81h3.13a3.92,3.92,0,0,1-1.14,2.12A5.7,5.7,0,0,1,228,58.48,6.41,6.41,0,0,1,223.91,57c-1.19-1-1.78-2.53-1.78-4.7a6.3,6.3,0,0,1,1.61-4.66,5.63,5.63,0,0,1,4.19-1.63A6.64,6.64,0,0,1,230.69,46.6Zm-4.59,2.65a3.17,3.17,0,0,0-.81,1.81h5.27a2.52,2.52,0,0,0-.81-1.85,2.7,2.7,0,0,0-1.82-.63A2.42,2.42,0,0,0,226.1,49.25Z"/><path class="cls-1" d="M241.31,46.35a3.65,3.65,0,0,1,1.8,1.7V46.36h3V57.48a6.24,6.24,0,0,1-.76,3.42q-1.31,2-5,2a6.85,6.85,0,0,1-3.67-.88,3.25,3.25,0,0,1-1.57-2.63h3.34a1.27,1.27,0,0,0,.42.77,2.57,2.57,0,0,0,1.66.42,2.26,2.26,0,0,0,2.22-1.1,5.72,5.72,0,0,0,.36-2.39v-.75a3.92,3.92,0,0,1-.94,1.13,3.84,3.84,0,0,1-2.38.69,4.5,4.5,0,0,1-3.61-1.58,6.42,6.42,0,0,1-1.35-4.3,7.29,7.29,0,0,1,1.3-4.39,4.32,4.32,0,0,1,3.69-1.78A4,4,0,0,1,241.31,46.35Zm1,8.4a3.72,3.72,0,0,0,.74-2.58,4,4,0,0,0-.7-2.54,2.29,2.29,0,0,0-1.88-.87,2.21,2.21,0,0,0-2.21,1.52,5.23,5.23,0,0,0-.32,2,4.51,4.51,0,0,0,.34,1.82,2.23,2.23,0,0,0,2.23,1.49A2.35,2.35,0,0,0,242.35,54.75Z"/><path class="cls-1" d="M259,56.65a6.45,6.45,0,0,1-9,0,6.78,6.78,0,0,1-1.49-4.41,6.85,6.85,0,0,1,1.49-4.4,6.4,6.4,0,0,1,9,0,6.85,6.85,0,0,1,1.49,4.4A6.78,6.78,0,0,1,259,56.65ZM256.5,55a4.42,4.42,0,0,0,.72-2.71,4.42,4.42,0,0,0-.72-2.71,2.72,2.72,0,0,0-4.13,0,4.41,4.41,0,0,0-.73,2.71,4.41,4.41,0,0,0,.73,2.71,2.7,2.7,0,0,0,4.13,0Z"/><path class="cls-1" d="M269.36,46.09l.26,0v3.13l-.51,0h-.37a2.54,2.54,0,0,0-2.48,1.2,4.67,4.67,0,0,0-.36,2.09v5.6h-3.08V46.36h2.92v2A6.85,6.85,0,0,1,267,46.8a3.37,3.37,0,0,1,2.24-.72Z"/><path class="cls-1" d="M272.1,60.33l.39,0a6,6,0,0,0,.86,0,1.62,1.62,0,0,0,.69-.25,1.71,1.71,0,0,0,.5-.76,2,2,0,0,0,.2-.71l-4.31-12.24h3.41L276.4,55l2.41-8.65h3.26l-4,11.53A16,16,0,0,1,276.21,62a3.5,3.5,0,0,1-2.71.8h-.66l-.74,0Z"/><path class="cls-1" d="M198.68,121.28v2.8h-4.74v13H190.6v-13h-4.76v-2.8Z"/><path class="cls-1" d="M203.35,124h-3.11v-2.83h3.11Zm-3.11,1.4h3.11v11.71h-3.11Z"/><path class="cls-1" d="M205.33,127.7v-2.19H207v-3.26h3v3.26h1.9v2.19H210v6.19c0,.48.06.78.18.89a2,2,0,0,0,1.12.18h.29l.31,0v2.29l-1.45.05a3.91,3.91,0,0,1-3-.75,2.25,2.25,0,0,1-.52-1.62V127.7Z"/><path class="cls-1" d="M217.21,137.12h-3.06V121.28h3.06Z"/><path class="cls-1" d="M228.06,125.64a4.82,4.82,0,0,1,2,1.74,5.82,5.82,0,0,1,.94,2.42,16,16,0,0,1,.1,2.32h-8.54a2.83,2.83,0,0,0,1.23,2.48,3.15,3.15,0,0,0,1.69.44,2.6,2.6,0,0,0,1.7-.54,2.43,2.43,0,0,0,.63-.81H231a3.82,3.82,0,0,1-1.14,2.12,5.7,5.7,0,0,1-4.41,1.71,6.37,6.37,0,0,1-4.12-1.44c-1.2-1-1.79-2.53-1.79-4.69a6.36,6.36,0,0,1,1.61-4.67,5.67,5.67,0,0,1,4.19-1.63A6.8,6.8,0,0,1,228.06,125.64Zm-4.59,2.65a3.2,3.2,0,0,0-.81,1.81h5.28a2.57,2.57,0,0,0-.82-1.85,2.69,2.69,0,0,0-1.82-.63A2.44,2.44,0,0,0,223.47,128.29Z"/><path class="cls-1" d="M624.69,191l4.08,12.1,4-12.1H635l-5.18,14.21h-2L622.56,191Z"/><path class="cls-1" d="M636.4,191h1.77v2H636.4Zm0,3.9h1.77v10.31H636.4Z"/><path class="cls-1" d="M647.4,195.1a4,4,0,0,1,1.56,1.34,4.69,4.69,0,0,1,.7,1.83,12.35,12.35,0,0,1,.15,2.28h-7.54a4.55,4.55,0,0,0,.74,2.54,2.47,2.47,0,0,0,2.14,1,2.74,2.74,0,0,0,2.16-.91,3,3,0,0,0,.64-1.21h1.72a3.82,3.82,0,0,1-.45,1.27,4.6,4.6,0,0,1-.86,1.15,4,4,0,0,1-2,1,6,6,0,0,1-1.41.16,4.32,4.32,0,0,1-3.26-1.41,5.51,5.51,0,0,1-1.33-3.95,6,6,0,0,1,1.34-4.05,4.43,4.43,0,0,1,3.52-1.56A4.78,4.78,0,0,1,647.4,195.1Zm.62,4.07a4.44,4.44,0,0,0-.49-1.81,2.5,2.5,0,0,0-2.37-1.26,2.59,2.59,0,0,0-2,.87,3.32,3.32,0,0,0-.86,2.2Z"/><path class="cls-1" d="M653,194.82l2,8.16,2-8.16h2l2,8.11,2.12-8.11h1.74l-3,10.36h-1.8l-2.11-8-2.05,8h-1.8l-3-10.36Z"/><path class="cls-1" d="M679.27,195.37a4.09,4.09,0,0,1,1.32,2.93H678.9a3.15,3.15,0,0,0-.71-1.59,2.24,2.24,0,0,0-1.77-.63A2.45,2.45,0,0,0,674,197.7a6.44,6.44,0,0,0-.46,2.6,5,5,0,0,0,.65,2.62,2.56,2.56,0,0,0,3.79.4,3.63,3.63,0,0,0,.88-1.81h1.69a4.1,4.1,0,0,1-4.42,4,4,4,0,0,1-3.24-1.49,5.65,5.65,0,0,1-1.21-3.71A6.24,6.24,0,0,1,673,196a4.27,4.27,0,0,1,3.38-1.52A4.5,4.5,0,0,1,679.27,195.37Z"/><path class="cls-1" d="M690,195.85a5.26,5.26,0,0,1,1.37,3.93,6.74,6.74,0,0,1-1.21,4.13,4.38,4.38,0,0,1-3.76,1.64,4.24,4.24,0,0,1-3.37-1.45,5.74,5.74,0,0,1-1.25-3.88,6.2,6.2,0,0,1,1.32-4.16,4.41,4.41,0,0,1,3.53-1.54A4.65,4.65,0,0,1,690,195.85ZM689,202.74a6.65,6.65,0,0,0,.63-2.92,5.15,5.15,0,0,0-.46-2.35,2.56,2.56,0,0,0-2.5-1.43,2.46,2.46,0,0,0-2.3,1.21,5.67,5.67,0,0,0-.72,2.94,4.91,4.91,0,0,0,.72,2.75,2.52,2.52,0,0,0,2.28,1.11A2.38,2.38,0,0,0,689,202.74Z"/><path class="cls-1" d="M695.49,194.82v6.88a3,3,0,0,0,.24,1.29,1.71,1.71,0,0,0,1.69.93,2.38,2.38,0,0,0,2.41-1.62,6.7,6.7,0,0,0,.35-2.39v-5.09h1.74v10.36h-1.64l0-1.53a3.66,3.66,0,0,1-.83,1,3.59,3.59,0,0,1-2.37.81,3,3,0,0,1-3-1.48,4.43,4.43,0,0,1-.43-2.12v-7Z"/><path class="cls-1" d="M705,194.82h1.65v1.47a4.66,4.66,0,0,1,1.56-1.31,4.23,4.23,0,0,1,1.83-.4,3,3,0,0,1,3,1.54,5.54,5.54,0,0,1,.42,2.41v6.65h-1.77v-6.53a3.52,3.52,0,0,0-.28-1.53,1.71,1.71,0,0,0-1.68-1,3.24,3.24,0,0,0-1,.13,2.56,2.56,0,0,0-1.26.85,2.43,2.43,0,0,0-.56,1.06,6.89,6.89,0,0,0-.13,1.56v5.43H705Z"/><path class="cls-1" d="M716.53,191.92h1.76v2.9H720v1.42h-1.66V203a.74.74,0,0,0,.37.73,1.61,1.61,0,0,0,.68.1h.27l.34,0v1.39a3.19,3.19,0,0,1-.63.12,5.08,5.08,0,0,1-.7,0,1.87,1.87,0,0,1-1.65-.62,2.79,2.79,0,0,1-.44-1.62v-6.86h-1.4v-1.42h1.4Z"/><g id="Layer_2-3" data-name="Layer 2"><g id="Capa_1" data-name="Capa 1"><g id="visibility"><path class="cls-1" d="M600.77,189.55a13.91,13.91,0,0,0-13,8.86,14,14,0,0,0,26,0A13.92,13.92,0,0,0,600.77,189.55Zm0,14.77a5.91,5.91,0,1,1,5.91-5.91A5.85,5.85,0,0,1,600.77,204.32Zm0-9.45a3.55,3.55,0,1,0,3.55,3.54A3.48,3.48,0,0,0,600.77,194.87Z"/></g></g></g><rect class="cls-3" width="1000" height="1000"/></g></g></svg>