<svg xmlns="http://www.w3.org/2000/svg" viewBox="0 0 28 28">
  <circle cx="14" cy="14" r="14" fill="#1ab2e8"/>
  <path d="M849.362,447.237A8.169,8.169,0,0,1,836.8,454.5a5.732,5.732,0,0,0,4.256-1.195,2.9,2.9,0,0,1-2.688-2,2.706,2.706,0,0,0,1.288-.056,2.872,2.872,0,0,1-2.3-2.856,2.784,2.784,0,0,0,1.306.355,2.866,2.866,0,0,1-.9-3.827,8.2,8.2,0,0,0,5.917,3.005,2.868,2.868,0,0,1,4.891-2.613,6.179,6.179,0,0,0,1.829-.691,2.9,2.9,0,0,1-1.269,1.587,5.933,5.933,0,0,0,1.643-.448A5.907,5.907,0,0,1,849.362,447.237Z" transform="translate(-829.762 -436.13)" fill="#fff"/>
</svg>
